<mxfile host="app.diagrams.net" modified="2020-08-18T09:53:07.262Z" agent="5.0 (Windows NT 10.0; Win64; x64) AppleWebKit/537.36 (KHTML, like Gecko) Chrome/84.0.4147.125 Safari/537.36" etag="LxIsp42UyIV0h_o5ZkxR" version="13.6.2" type="github">
  <diagram id="ylmNzeJgcqqIBCxXTWP5" name="Page-1">
    <mxGraphModel dx="3743" dy="1533" grid="1" gridSize="10" guides="1" tooltips="1" connect="1" arrows="1" fold="1" page="1" pageScale="1" pageWidth="850" pageHeight="1100" math="0" shadow="0">
      <root>
        <mxCell id="0" />
        <mxCell id="1" parent="0" />
        <mxCell id="1m_To5HqSC4VJAqgTMri-2" value="" style="rounded=0;whiteSpace=wrap;html=1;" vertex="1" parent="1">
          <mxGeometry x="-3" width="850" height="1100" as="geometry" />
        </mxCell>
        <mxCell id="1m_To5HqSC4VJAqgTMri-1" value="&lt;font style=&quot;font-size: 24px&quot;&gt;:Customer&lt;/font&gt;" style="shape=umlActor;verticalLabelPosition=bottom;verticalAlign=top;html=1;outlineConnect=0;" vertex="1" parent="1">
          <mxGeometry x="70" y="90" width="70" height="120" as="geometry" />
        </mxCell>
        <mxCell id="1m_To5HqSC4VJAqgTMri-3" value="" style="rounded=0;whiteSpace=wrap;html=1;" vertex="1" parent="1">
          <mxGeometry x="97.5" y="290" width="15" height="740" as="geometry" />
        </mxCell>
        <mxCell id="1m_To5HqSC4VJAqgTMri-4" value="&lt;div&gt;&lt;span style=&quot;font-family: &amp;#34;calibri&amp;#34; , &amp;#34;bold&amp;#34;&quot;&gt;&lt;font style=&quot;font-size: 24px&quot;&gt;&amp;nbsp;:sequence diagram&amp;nbsp;&lt;/font&gt;&lt;/span&gt;&lt;/div&gt;" style="text;html=1;strokeColor=none;fillColor=none;align=center;verticalAlign=middle;whiteSpace=wrap;rounded=0;" vertex="1" parent="1">
          <mxGeometry x="260" y="100" width="40" height="20" as="geometry" />
        </mxCell>
        <mxCell id="1m_To5HqSC4VJAqgTMri-8" value="&lt;div&gt;&lt;span style=&quot;font-family: &amp;#34;times new roman&amp;#34; , &amp;#34;bold&amp;#34;&quot;&gt;&lt;font style=&quot;font-size: 24px&quot;&gt;:smart Card Reader&lt;/font&gt;&lt;/span&gt;&lt;/div&gt;" style="text;html=1;strokeColor=none;fillColor=none;align=center;verticalAlign=middle;whiteSpace=wrap;rounded=0;" vertex="1" parent="1">
          <mxGeometry x="400" y="100" width="120" height="20" as="geometry" />
        </mxCell>
        <mxCell id="1m_To5HqSC4VJAqgTMri-9" value="&lt;div&gt;&lt;span style=&quot;font-family: &amp;#34;times new roman&amp;#34; , &amp;#34;bold&amp;#34;&quot;&gt;&lt;font style=&quot;font-size: 24px&quot;&gt;:item&lt;/font&gt;&lt;/span&gt;&lt;/div&gt;" style="text;html=1;strokeColor=none;fillColor=none;align=center;verticalAlign=middle;whiteSpace=wrap;rounded=0;" vertex="1" parent="1">
          <mxGeometry x="640" y="100" width="120" height="20" as="geometry" />
        </mxCell>
        <mxCell id="1m_To5HqSC4VJAqgTMri-10" value="" style="endArrow=none;dashed=1;html=1;entryX=0.819;entryY=0.136;entryDx=0;entryDy=0;entryPerimeter=0;" edge="1" parent="1" target="1m_To5HqSC4VJAqgTMri-2">
          <mxGeometry width="50" height="50" relative="1" as="geometry">
            <mxPoint x="696" y="1020" as="sourcePoint" />
            <mxPoint x="430" y="410" as="targetPoint" />
          </mxGeometry>
        </mxCell>
        <mxCell id="1m_To5HqSC4VJAqgTMri-12" value="" style="endArrow=none;dashed=1;html=1;entryX=0.549;entryY=0.145;entryDx=0;entryDy=0;entryPerimeter=0;" edge="1" parent="1" target="1m_To5HqSC4VJAqgTMri-2">
          <mxGeometry width="50" height="50" relative="1" as="geometry">
            <mxPoint x="466" y="1030" as="sourcePoint" />
            <mxPoint x="466.1500000000001" y="230.29999999999998" as="targetPoint" />
          </mxGeometry>
        </mxCell>
        <mxCell id="1m_To5HqSC4VJAqgTMri-13" value="" style="endArrow=none;dashed=1;html=1;entryX=0.326;entryY=0.148;entryDx=0;entryDy=0;entryPerimeter=0;" edge="1" parent="1" target="1m_To5HqSC4VJAqgTMri-2">
          <mxGeometry width="50" height="50" relative="1" as="geometry">
            <mxPoint x="270" y="1030" as="sourcePoint" />
            <mxPoint x="276.1500000000003" y="230.3000000000001" as="targetPoint" />
          </mxGeometry>
        </mxCell>
        <mxCell id="1m_To5HqSC4VJAqgTMri-15" value="" style="endArrow=classic;html=1;exitX=0.153;exitY=0.316;exitDx=0;exitDy=0;exitPerimeter=0;entryX=0.518;entryY=0.316;entryDx=0;entryDy=0;entryPerimeter=0;" edge="1" parent="1" source="1m_To5HqSC4VJAqgTMri-2" target="1m_To5HqSC4VJAqgTMri-2">
          <mxGeometry width="50" height="50" relative="1" as="geometry">
            <mxPoint x="450" y="500" as="sourcePoint" />
            <mxPoint x="500" y="450" as="targetPoint" />
          </mxGeometry>
        </mxCell>
        <mxCell id="1m_To5HqSC4VJAqgTMri-20" value="" style="rounded=0;whiteSpace=wrap;html=1;fillColor=none;" vertex="1" parent="1">
          <mxGeometry x="465" y="338" width="30" height="130" as="geometry" />
        </mxCell>
        <mxCell id="1m_To5HqSC4VJAqgTMri-21" value="" style="endArrow=classic;html=1;exitX=0.153;exitY=0.316;exitDx=0;exitDy=0;exitPerimeter=0;entryX=0.518;entryY=0.316;entryDx=0;entryDy=0;entryPerimeter=0;" edge="1" parent="1">
          <mxGeometry width="50" height="50" relative="1" as="geometry">
            <mxPoint x="129.99999999999972" y="429.9999999999999" as="sourcePoint" />
            <mxPoint x="440.2499999999997" y="429.9999999999999" as="targetPoint" />
          </mxGeometry>
        </mxCell>
        <mxCell id="1m_To5HqSC4VJAqgTMri-22" value="" style="endArrow=none;dashed=1;html=1;exitX=0.16;exitY=0.421;exitDx=0;exitDy=0;exitPerimeter=0;entryX=0.518;entryY=0.421;entryDx=0;entryDy=0;entryPerimeter=0;startArrow=classic;startFill=1;" edge="1" parent="1" source="1m_To5HqSC4VJAqgTMri-2" target="1m_To5HqSC4VJAqgTMri-2">
          <mxGeometry width="50" height="50" relative="1" as="geometry">
            <mxPoint x="350" y="330" as="sourcePoint" />
            <mxPoint x="400" y="280" as="targetPoint" />
          </mxGeometry>
        </mxCell>
        <mxCell id="1m_To5HqSC4VJAqgTMri-24" value="" style="endArrow=classic;html=1;exitX=0.153;exitY=0.316;exitDx=0;exitDy=0;exitPerimeter=0;" edge="1" parent="1">
          <mxGeometry width="50" height="50" relative="1" as="geometry">
            <mxPoint x="124.87999999999977" y="570" as="sourcePoint" />
            <mxPoint x="250" y="570" as="targetPoint" />
          </mxGeometry>
        </mxCell>
        <mxCell id="1m_To5HqSC4VJAqgTMri-27" value="" style="endArrow=classic;html=1;exitX=0.153;exitY=0.316;exitDx=0;exitDy=0;exitPerimeter=0;" edge="1" parent="1">
          <mxGeometry width="50" height="50" relative="1" as="geometry">
            <mxPoint x="339.99999999999966" y="600" as="sourcePoint" />
            <mxPoint x="690" y="600" as="targetPoint" />
          </mxGeometry>
        </mxCell>
        <mxCell id="1m_To5HqSC4VJAqgTMri-28" value="" style="endArrow=none;dashed=1;html=1;exitX=0.412;exitY=0.605;exitDx=0;exitDy=0;exitPerimeter=0;startArrow=classic;startFill=1;" edge="1" parent="1" source="1m_To5HqSC4VJAqgTMri-2">
          <mxGeometry width="50" height="50" relative="1" as="geometry">
            <mxPoint x="160" y="780" as="sourcePoint" />
            <mxPoint x="690" y="666" as="targetPoint" />
          </mxGeometry>
        </mxCell>
        <mxCell id="1m_To5HqSC4VJAqgTMri-29" value="" style="endArrow=classic;html=1;exitX=0.153;exitY=0.316;exitDx=0;exitDy=0;exitPerimeter=0;" edge="1" parent="1">
          <mxGeometry width="50" height="50" relative="1" as="geometry">
            <mxPoint x="119.99999999999966" y="770.02" as="sourcePoint" />
            <mxPoint x="245.12" y="770.02" as="targetPoint" />
          </mxGeometry>
        </mxCell>
        <mxCell id="1m_To5HqSC4VJAqgTMri-33" value="" style="endArrow=classic;html=1;exitX=0.153;exitY=0.316;exitDx=0;exitDy=0;exitPerimeter=0;" edge="1" parent="1">
          <mxGeometry width="50" height="50" relative="1" as="geometry">
            <mxPoint x="324.87999999999954" y="780.02" as="sourcePoint" />
            <mxPoint x="449.9999999999999" y="780.02" as="targetPoint" />
          </mxGeometry>
        </mxCell>
        <mxCell id="1m_To5HqSC4VJAqgTMri-34" value="" style="endArrow=classic;html=1;exitX=0.153;exitY=0.316;exitDx=0;exitDy=0;exitPerimeter=0;" edge="1" parent="1">
          <mxGeometry width="50" height="50" relative="1" as="geometry">
            <mxPoint x="519.9999999999997" y="790.02" as="sourcePoint" />
            <mxPoint x="690" y="790" as="targetPoint" />
          </mxGeometry>
        </mxCell>
        <mxCell id="1m_To5HqSC4VJAqgTMri-36" value="" style="endArrow=classic;html=1;exitX=0.153;exitY=0.316;exitDx=0;exitDy=0;exitPerimeter=0;entryX=0.533;entryY=0.854;entryDx=0;entryDy=0;entryPerimeter=0;" edge="1" parent="1" target="1m_To5HqSC4VJAqgTMri-2">
          <mxGeometry width="50" height="50" relative="1" as="geometry">
            <mxPoint x="119.99999999999955" y="940" as="sourcePoint" />
            <mxPoint x="245.11999999999966" y="940" as="targetPoint" />
          </mxGeometry>
        </mxCell>
        <mxCell id="1m_To5HqSC4VJAqgTMri-37" value="&lt;div&gt;&lt;span style=&quot;font-family: &amp;#34;times new roman&amp;#34;&quot;&gt;&lt;font style=&quot;font-size: 20px&quot;&gt;insertCard()&lt;/font&gt;&lt;/span&gt;&lt;/div&gt;" style="text;html=1;strokeColor=none;fillColor=none;align=center;verticalAlign=middle;whiteSpace=wrap;rounded=0;" vertex="1" parent="1">
          <mxGeometry x="180" y="320" width="40" height="20" as="geometry" />
        </mxCell>
        <mxCell id="1m_To5HqSC4VJAqgTMri-38" value="&lt;div&gt;&lt;span style=&quot;font-family: &amp;#34;times new roman&amp;#34;&quot;&gt;&lt;font style=&quot;font-size: 20px&quot;&gt;checkCardValidity()&lt;/font&gt;&lt;/span&gt;&lt;/div&gt;" style="text;html=1;strokeColor=none;fillColor=none;align=center;verticalAlign=middle;whiteSpace=wrap;rounded=0;" vertex="1" parent="1">
          <mxGeometry x="340" y="400" width="40" height="20" as="geometry" />
        </mxCell>
        <mxCell id="1m_To5HqSC4VJAqgTMri-39" value="&lt;font style=&quot;font-size: 20px&quot;&gt;True&lt;/font&gt;" style="text;html=1;strokeColor=none;fillColor=none;align=center;verticalAlign=middle;whiteSpace=wrap;rounded=0;" vertex="1" parent="1">
          <mxGeometry x="190" y="470" width="40" height="20" as="geometry" />
        </mxCell>
        <mxCell id="1m_To5HqSC4VJAqgTMri-40" value="&lt;div&gt;&lt;span style=&quot;font-family: &amp;#34;times new roman&amp;#34;&quot;&gt;&lt;font style=&quot;font-size: 20px&quot;&gt;chooseItem()&lt;/font&gt;&lt;/span&gt;&lt;/div&gt;" style="text;html=1;strokeColor=none;fillColor=none;align=center;verticalAlign=middle;whiteSpace=wrap;rounded=0;" vertex="1" parent="1">
          <mxGeometry x="170" y="540" width="40" height="20" as="geometry" />
        </mxCell>
        <mxCell id="1m_To5HqSC4VJAqgTMri-41" value="&lt;div&gt;&lt;span style=&quot;font-family: &amp;#34;times new roman&amp;#34;&quot;&gt;&lt;font style=&quot;font-size: 20px&quot;&gt;isAvailable()&lt;/font&gt;&lt;/span&gt;&lt;/div&gt;" style="text;html=1;strokeColor=none;fillColor=none;align=center;verticalAlign=middle;whiteSpace=wrap;rounded=0;" vertex="1" parent="1">
          <mxGeometry x="560" y="570" width="40" height="20" as="geometry" />
        </mxCell>
        <mxCell id="1m_To5HqSC4VJAqgTMri-42" value="&lt;font style=&quot;font-size: 20px&quot;&gt;True&lt;/font&gt;" style="text;html=1;strokeColor=none;fillColor=none;align=center;verticalAlign=middle;whiteSpace=wrap;rounded=0;" vertex="1" parent="1">
          <mxGeometry x="480" y="670" width="40" height="20" as="geometry" />
        </mxCell>
        <mxCell id="1m_To5HqSC4VJAqgTMri-43" value="&lt;div&gt;&lt;span style=&quot;font-family: &amp;#34;times new roman&amp;#34;&quot;&gt;&lt;font style=&quot;font-size: 20px&quot;&gt;sellItem()&lt;/font&gt;&lt;/span&gt;&lt;/div&gt;" style="text;html=1;strokeColor=none;fillColor=none;align=center;verticalAlign=middle;whiteSpace=wrap;rounded=0;" vertex="1" parent="1">
          <mxGeometry x="180" y="740" width="40" height="20" as="geometry" />
        </mxCell>
        <mxCell id="1m_To5HqSC4VJAqgTMri-44" value="&lt;div style=&quot;font-size: 20px&quot;&gt;&lt;span style=&quot;font-family: &amp;#34;times new roman&amp;#34;&quot;&gt;updateCard&lt;/span&gt;&lt;/div&gt;&lt;div style=&quot;font-size: 20px&quot;&gt;&lt;span style=&quot;font-family: &amp;#34;times new roman&amp;#34;&quot;&gt;Amount&lt;/span&gt;&lt;span style=&quot;font-family: &amp;#34;times new roman&amp;#34;&quot;&gt;&lt;font style=&quot;font-size: 20px&quot;&gt;()&lt;/font&gt;&lt;/span&gt;&lt;/div&gt;" style="text;html=1;strokeColor=none;fillColor=none;align=center;verticalAlign=middle;whiteSpace=wrap;rounded=0;" vertex="1" parent="1">
          <mxGeometry x="370" y="700" width="40" height="80" as="geometry" />
        </mxCell>
        <mxCell id="1m_To5HqSC4VJAqgTMri-45" value="&lt;div style=&quot;font-size: 20px&quot;&gt;&lt;font face=&quot;times new roman&quot;&gt;getPrice()&lt;/font&gt;&lt;/div&gt;" style="text;html=1;strokeColor=none;fillColor=none;align=center;verticalAlign=middle;whiteSpace=wrap;rounded=0;" vertex="1" parent="1">
          <mxGeometry x="580" y="730" width="40" height="80" as="geometry" />
        </mxCell>
        <mxCell id="1m_To5HqSC4VJAqgTMri-46" value="&lt;div&gt;&lt;span style=&quot;font-family: &amp;#34;times new roman&amp;#34;&quot;&gt;&lt;font style=&quot;font-size: 20px&quot;&gt;releaseCard()&lt;/font&gt;&lt;/span&gt;&lt;/div&gt;" style="text;html=1;strokeColor=none;fillColor=none;align=center;verticalAlign=middle;whiteSpace=wrap;rounded=0;" vertex="1" parent="1">
          <mxGeometry x="330" y="910" width="40" height="20" as="geometry" />
        </mxCell>
        <mxCell id="1m_To5HqSC4VJAqgTMri-47" value="" style="rounded=0;whiteSpace=wrap;html=1;fillColor=none;" vertex="1" parent="1">
          <mxGeometry x="466" y="938" width="20" height="60" as="geometry" />
        </mxCell>
        <mxCell id="1m_To5HqSC4VJAqgTMri-49" value="" style="rounded=0;whiteSpace=wrap;html=1;fillColor=none;" vertex="1" parent="1">
          <mxGeometry x="695" y="790" width="20" height="60" as="geometry" />
        </mxCell>
        <mxCell id="1m_To5HqSC4VJAqgTMri-50" value="" style="rounded=0;whiteSpace=wrap;html=1;fillColor=none;" vertex="1" parent="1">
          <mxGeometry x="466" y="780" width="20" height="60" as="geometry" />
        </mxCell>
        <mxCell id="1m_To5HqSC4VJAqgTMri-52" value="" style="rounded=0;whiteSpace=wrap;html=1;fillColor=none;" vertex="1" parent="1">
          <mxGeometry x="272" y="770" width="20" height="80" as="geometry" />
        </mxCell>
        <mxCell id="1m_To5HqSC4VJAqgTMri-54" value="" style="rounded=0;whiteSpace=wrap;html=1;fillColor=none;" vertex="1" parent="1">
          <mxGeometry x="272" y="570" width="20" height="80" as="geometry" />
        </mxCell>
        <mxCell id="1m_To5HqSC4VJAqgTMri-55" value="" style="rounded=0;whiteSpace=wrap;html=1;fillColor=none;" vertex="1" parent="1">
          <mxGeometry x="695" y="600" width="20" height="70" as="geometry" />
        </mxCell>
        <mxCell id="1m_To5HqSC4VJAqgTMri-56" value="&lt;b&gt;&lt;font style=&quot;font-size: 24px&quot;&gt;CT/2015/054&lt;/font&gt;&lt;/b&gt;" style="text;html=1;strokeColor=none;fillColor=none;align=center;verticalAlign=middle;whiteSpace=wrap;rounded=0;" vertex="1" parent="1">
          <mxGeometry x="70" y="20" width="40" height="20" as="geometry" />
        </mxCell>
      </root>
    </mxGraphModel>
  </diagram>
</mxfile>
